<?xml version="1.0" encoding="UTF-8" standalone="no"?>
<svg
   xmlns:dc="http://purl.org/dc/elements/1.1/"
   xmlns:cc="http://creativecommons.org/ns#"
   xmlns:rdf="http://www.w3.org/1999/02/22-rdf-syntax-ns#"
   xmlns:svg="http://www.w3.org/2000/svg"
   xmlns="http://www.w3.org/2000/svg"
   xmlns:sodipodi="http://sodipodi.sourceforge.net/DTD/sodipodi-0.dtd"
   xmlns:inkscape="http://www.inkscape.org/namespaces/inkscape"
   version="1.1"
   id="svg10"
   xml:space="preserve"
   width="1333.3333"
   height="1333.3333"
   viewBox="0 0 1333.3333 1333.3333"
   sodipodi:docname="Jerk de Filet1.ai.svg"
   inkscape:version="1.0.1 (c497b03c, 2020-09-10)"><metadata
     id="metadata16"><rdf:RDF><cc:Work
         rdf:about=""><dc:format>image/svg+xml</dc:format><dc:type
           rdf:resource="http://purl.org/dc/dcmitype/StillImage" /><dc:title></dc:title></cc:Work></rdf:RDF></metadata><defs
     id="defs14"><linearGradient
       x1="0"
       y1="0"
       x2="1"
       y2="0"
       gradientUnits="userSpaceOnUse"
       gradientTransform="matrix(454.05405,-14.864864,-14.864864,-454.05405,295.62183,245.59584)"
       spreadMethod="pad"
       id="linearGradient36"><stop
         style="stop-opacity:1;stop-color:#322331"
         offset="0"
         id="stop32" /><stop
         style="stop-opacity:1;stop-color:#2c1e1c"
         offset="1"
         id="stop34" /></linearGradient><linearGradient
       x1="0"
       y1="0"
       x2="1"
       y2="0"
       gradientUnits="userSpaceOnUse"
       gradientTransform="matrix(454.05405,-14.864864,-14.864864,-454.05405,295.58737,244.54385)"
       spreadMethod="pad"
       id="linearGradient56"><stop
         style="stop-opacity:1;stop-color:#322331"
         offset="0"
         id="stop52" /><stop
         style="stop-opacity:1;stop-color:#2c1e1c"
         offset="1"
         id="stop54" /></linearGradient><linearGradient
       x1="0"
       y1="0"
       x2="1"
       y2="0"
       gradientUnits="userSpaceOnUse"
       gradientTransform="matrix(454.05405,-14.864864,-14.864864,-454.05405,295.68509,247.52811)"
       spreadMethod="pad"
       id="linearGradient76"><stop
         style="stop-opacity:1;stop-color:#322331"
         offset="0"
         id="stop72" /><stop
         style="stop-opacity:1;stop-color:#2c1e1c"
         offset="1"
         id="stop74" /></linearGradient><linearGradient
       x1="0"
       y1="0"
       x2="1"
       y2="0"
       gradientUnits="userSpaceOnUse"
       gradientTransform="matrix(454.05405,-14.864864,-14.864864,-454.05405,295.84628,252.45177)"
       spreadMethod="pad"
       id="linearGradient96"><stop
         style="stop-opacity:1;stop-color:#322331"
         offset="0"
         id="stop92" /><stop
         style="stop-opacity:1;stop-color:#2c1e1c"
         offset="1"
         id="stop94" /></linearGradient><linearGradient
       x1="0"
       y1="0"
       x2="1"
       y2="0"
       gradientUnits="userSpaceOnUse"
       gradientTransform="matrix(454.05405,-14.864864,-14.864864,-454.05405,296.02133,257.79916)"
       spreadMethod="pad"
       id="linearGradient116"><stop
         style="stop-opacity:1;stop-color:#322331"
         offset="0"
         id="stop112" /><stop
         style="stop-opacity:1;stop-color:#2c1e1c"
         offset="1"
         id="stop114" /></linearGradient><linearGradient
       x1="0"
       y1="0"
       x2="1"
       y2="0"
       gradientUnits="userSpaceOnUse"
       gradientTransform="matrix(454.05405,-14.864864,-14.864864,-454.05405,295.77856,250.38341)"
       spreadMethod="pad"
       id="linearGradient136"><stop
         style="stop-opacity:1;stop-color:#322331"
         offset="0"
         id="stop132" /><stop
         style="stop-opacity:1;stop-color:#2c1e1c"
         offset="1"
         id="stop134" /></linearGradient><linearGradient
       x1="0"
       y1="0"
       x2="1"
       y2="0"
       gradientUnits="userSpaceOnUse"
       gradientTransform="matrix(454.05405,-14.864864,-14.864864,-454.05405,296.12769,261.04724)"
       spreadMethod="pad"
       id="linearGradient156"><stop
         style="stop-opacity:1;stop-color:#322331"
         offset="0"
         id="stop152" /><stop
         style="stop-opacity:1;stop-color:#2c1e1c"
         offset="1"
         id="stop154" /></linearGradient><linearGradient
       x1="0"
       y1="0"
       x2="1"
       y2="0"
       gradientUnits="userSpaceOnUse"
       gradientTransform="matrix(454.05405,-14.864864,-14.864864,-454.05405,296.2171,263.77911)"
       spreadMethod="pad"
       id="linearGradient176"><stop
         style="stop-opacity:1;stop-color:#322331"
         offset="0"
         id="stop172" /><stop
         style="stop-opacity:1;stop-color:#2c1e1c"
         offset="1"
         id="stop174" /></linearGradient><linearGradient
       x1="0"
       y1="0"
       x2="1"
       y2="0"
       gradientUnits="userSpaceOnUse"
       gradientTransform="matrix(454.05405,-14.864864,-14.864864,-454.05405,296.35892,268.1106)"
       spreadMethod="pad"
       id="linearGradient196"><stop
         style="stop-opacity:1;stop-color:#322331"
         offset="0"
         id="stop192" /><stop
         style="stop-opacity:1;stop-color:#2c1e1c"
         offset="1"
         id="stop194" /></linearGradient><linearGradient
       x1="0"
       y1="0"
       x2="1"
       y2="0"
       gradientUnits="userSpaceOnUse"
       gradientTransform="matrix(454.05405,-14.864864,-14.864864,-454.05405,295.92883,254.97334)"
       spreadMethod="pad"
       id="linearGradient216"><stop
         style="stop-opacity:1;stop-color:#322331"
         offset="0"
         id="stop212" /><stop
         style="stop-opacity:1;stop-color:#2c1e1c"
         offset="1"
         id="stop214" /></linearGradient><linearGradient
       x1="0"
       y1="0"
       x2="1"
       y2="0"
       gradientUnits="userSpaceOnUse"
       gradientTransform="matrix(454.05405,-14.864864,-14.864864,-454.05405,296.13361,261.22885)"
       spreadMethod="pad"
       id="linearGradient236"><stop
         style="stop-opacity:1;stop-color:#322331"
         offset="0"
         id="stop232" /><stop
         style="stop-opacity:1;stop-color:#2c1e1c"
         offset="1"
         id="stop234" /></linearGradient><linearGradient
       x1="0"
       y1="0"
       x2="1"
       y2="0"
       gradientUnits="userSpaceOnUse"
       gradientTransform="matrix(473.28,0,0,-473.28,263.36002,568.94299)"
       spreadMethod="pad"
       id="linearGradient256"><stop
         style="stop-opacity:1;stop-color:#322331"
         offset="0"
         id="stop252" /><stop
         style="stop-opacity:1;stop-color:#2c1e1c"
         offset="1"
         id="stop254" /></linearGradient></defs><sodipodi:namedview
     pagecolor="#ffffff"
     bordercolor="#666666"
     borderopacity="1"
     objecttolerance="10"
     gridtolerance="10"
     guidetolerance="10"
     inkscape:pageopacity="0"
     inkscape:pageshadow="2"
     inkscape:window-width="756"
     inkscape:window-height="756"
     id="namedview12"
     showgrid="false"
     inkscape:zoom="0.45300003"
     inkscape:cx="666.66663"
     inkscape:cy="666.66663"
     inkscape:window-x="0"
     inkscape:window-y="23"
     inkscape:window-maximized="0"
     inkscape:current-layer="g18" /><g
     id="g18"
     inkscape:groupmode="layer"
     inkscape:label="Jerk de Filet1"
     transform="matrix(1.3333333,0,0,-1.3333333,0,1333.3333)"><g
       id="g20"><g
         id="g22"><g
           id="g28"><g
             id="g30"><path
               d="m 313.858,279.243 c -4.402,-1.402 -7.899,-3.626 -10.491,-6.674 v 0 c -2.592,-3.047 -3.888,-6.395 -3.888,-10.045 v 0 c 0,-1.957 0.367,-3.439 1.101,-4.45 v 0 c 0.735,-1.011 1.674,-1.515 2.817,-1.515 v 0 c 0.882,0 1.642,0.318 2.278,0.954 v 0 c 0.637,0.638 0.955,1.38 0.955,2.231 v 0 c 0,0.684 -0.392,1.615 -1.174,2.791 v 0 c -0.85,1.274 -1.275,2.401 -1.275,3.381 v 0 c 0,2.775 1.697,5.413 5.095,7.911 v 0 c 3.397,2.498 7.691,3.748 12.884,3.748 v 0 l 2.351,-0.099 -4.261,-14.902 c -2.582,-9.216 -5.242,-18.104 -7.986,-26.667 v 0 c -3.266,-10.264 -5.422,-16.303 -6.467,-18.118 v 0 c -1.044,-1.814 -2.269,-3.146 -3.673,-3.996 v 0 c -0.85,-0.524 -1.862,-0.786 -3.038,-0.786 v 0 c -1.11,0 -2.352,0.343 -3.723,1.03 v 0 c -0.979,0.49 -2.336,1.633 -4.065,3.429 v 0 c -1.275,1.339 -2.467,2.009 -3.577,2.009 v 0 c -0.752,0 -1.421,-0.311 -2.009,-0.931 v 0 c -0.588,-0.62 -0.882,-1.339 -0.882,-2.156 v 0 c 0,-1.763 0.996,-3.381 2.985,-4.85 v 0 c 1.989,-1.47 4.614,-2.204 7.875,-2.204 v 0 c 4.923,0 9.471,1.912 13.645,5.736 v 0 c 4.141,3.791 7.37,9.772 9.685,17.943 v 0 l 7.298,25.514 c 2.678,9.434 5.209,16.796 7.593,22.087 v 0 c -3.619,0.03 -5.854,0.047 -6.701,0.047 v 0 c -5.967,0 -10.417,-0.472 -13.352,-1.418"
               style="fill:url(#linearGradient36);stroke:none"
               id="path38" /></g></g></g></g><g
       id="g40"><g
         id="g42"><g
           id="g48"><g
             id="g50"><path
               d="m 339.355,252.297 c -4.246,-6.925 -6.369,-13.881 -6.369,-20.869 v 0 c 0,-3.463 0.612,-5.977 1.837,-7.544 v 0 c 1.225,-1.569 2.996,-2.352 5.316,-2.352 v 0 c 5.715,0 12.573,3.804 20.575,11.414 v 0 l -1.617,2.156 c -4.148,-3.103 -7.3,-5.161 -9.454,-6.173 v 0 c -1.601,-0.751 -3.071,-1.126 -4.409,-1.126 v 0 c -1.405,0 -2.474,0.457 -3.209,1.371 v 0 c -0.735,0.914 -1.102,2.531 -1.102,4.85 v 0 c 0,1.6 0.146,3.283 0.441,5.047 v 0 c 6.204,2.807 10.254,4.751 12.149,5.828 v 0 c 3.788,2.221 6.417,4.36 7.887,6.419 v 0 c 1.469,2.056 2.204,4.146 2.204,6.27 v 0 c 0,2.024 -0.612,3.616 -1.837,4.776 v 0 c -1.224,1.159 -2.996,1.738 -5.315,1.738 v 0 c -6.63,0 -12.329,-3.935 -17.097,-11.805 m 5.781,0.882 c 1.044,2.449 2.334,4.278 3.87,5.486 v 0 c 1.143,0.914 2.318,1.372 3.527,1.372 v 0 c 1.175,0 2.131,-0.417 2.865,-1.249 v 0 c 0.736,-0.833 1.103,-1.952 1.103,-3.356 v 0 c 0,-1.862 -0.899,-3.74 -2.695,-5.634 v 0 c -2.645,-2.711 -6.597,-5.241 -11.855,-7.593 v 0 c 0.621,3.724 1.682,7.381 3.185,10.974"
               style="fill:url(#linearGradient56);stroke:none"
               id="path58" /></g></g></g></g><g
       id="g60"><g
         id="g62"><g
           id="g68"><g
             id="g70"><path
               d="m 394.059,263.799 c -4.157,-3.704 -7.887,-8.163 -11.193,-13.376 v 0 l 2.132,8.813 c 0.429,1.838 0.645,2.97 0.645,3.397 v 0 c 0,0.424 -0.172,0.776 -0.515,1.053 v 0 c -0.343,0.278 -0.807,0.416 -1.396,0.416 v 0 c -1.665,0 -4.056,-0.84 -7.174,-2.521 v 0 c -3.117,-1.684 -6.244,-4.206 -9.377,-7.569 v 0 l 1.518,-1.715 c 2.645,2.645 4.474,4.303 5.487,4.973 v 0 c 1.011,0.668 1.764,1.003 2.253,1.003 v 0 c 0.719,0 1.078,-0.391 1.078,-1.175 v 0 c 0,-0.36 -0.147,-1.259 -0.44,-2.695 v 0 c -1.242,-5.813 -2.695,-11.953 -4.361,-18.419 v 0 l -3.429,-13.178 h 7.299 l 2.211,9.502 c 1.472,6.367 2.568,10.425 3.288,12.172 v 0 c 0.721,1.746 1.986,3.796 3.798,6.148 v 0 c 1.811,2.352 3.475,4.1 4.992,5.243 v 0 c 1.518,1.144 3.484,2.124 5.899,2.941 v 0 c 2.545,0.849 4.136,1.583 4.773,2.204 v 0 c 0.636,0.62 0.955,1.373 0.955,2.255 v 0 c 0,0.848 -0.328,1.591 -0.983,2.228 v 0 c -0.654,0.636 -1.473,0.955 -2.454,0.955 v 0 c -1.342,0 -3.01,-0.886 -5.006,-2.655"
               style="fill:url(#linearGradient76);stroke:none"
               id="path78" /></g></g></g></g><g
       id="g80"><g
         id="g82"><g
           id="g88"><g
             id="g90"><path
               d="m 425.599,290.53 c -2.368,-0.833 -4.573,-2.035 -6.613,-3.605 v 0 c -2.042,-1.568 -3.74,-3.351 -5.096,-5.345 v 0 c -1.355,-1.995 -2.514,-4.529 -3.477,-7.603 v 0 c -0.964,-3.073 -2.997,-11.23 -6.1,-24.472 v 0 l -6.417,-26.699 h 7.299 l 4.767,21.16 c 1.76,-1.472 3.146,-2.959 4.157,-4.464 v 0 c 1.303,-1.929 2.771,-4.822 4.401,-8.681 v 0 c 3.494,-8.141 5.944,-13.356 7.348,-15.645 v 0 c 2.45,-3.955 5.078,-6.832 7.888,-8.631 v 0 c 2.808,-1.799 5.992,-2.699 9.553,-2.699 v 0 c 3.461,0 6.27,0.916 8.425,2.744 v 0 c 2.156,1.83 3.234,3.92 3.234,6.272 v 0 c 0,1.208 -0.328,2.179 -0.98,2.913 v 0 c -0.654,0.735 -1.437,1.103 -2.352,1.103 v 0 c -0.784,0 -1.469,-0.294 -2.057,-0.882 v 0 c -0.588,-0.588 -0.881,-1.257 -0.881,-2.008 v 0 c 0,-0.589 0.179,-1.306 0.538,-2.156 v 0 c 0.326,-0.783 0.49,-1.403 0.49,-1.861 v 0 c 0,-0.718 -0.523,-1.429 -1.567,-2.131 v 0 c -1.046,-0.702 -2.369,-1.054 -3.969,-1.054 v 0 c -2.744,0 -5.258,1.079 -7.544,3.238 v 0 c -2.319,2.158 -4.834,6.508 -7.544,13.048 v 0 c -2.287,5.494 -4.157,9.41 -5.61,11.748 v 0 c -1.453,2.338 -2.931,4.17 -4.433,5.493 v 0 c -1.502,1.324 -3.511,2.543 -6.026,3.655 v 0 c 7.447,0.197 12.983,1.667 16.607,4.41 v 0 c 3.625,2.743 5.438,5.861 5.438,9.357 v 0 c 0,1.861 -0.564,3.404 -1.691,4.629 v 0 c -1.129,1.225 -2.509,1.837 -4.144,1.837 v 0 c -2.321,0 -4.756,-0.719 -7.305,-2.155 v 0 c -3.367,-1.926 -6.62,-4.668 -9.757,-8.225 v 0 l 3.519,15.621 c 1.273,5.831 2.259,9.672 2.961,11.523 v 0 c 0.701,1.85 1.501,3.135 2.398,3.857 v 0 c 0.897,0.72 1.851,1.081 2.863,1.081 v 0 c 0.718,0 1.55,-0.098 2.496,-0.293 v 0 c 2.904,-0.491 5.073,-0.736 6.509,-0.736 v 0 c 1.142,0 2.088,0.326 2.838,0.979 v 0 c 0.75,0.654 1.127,1.438 1.127,2.352 v 0 c 0,1.078 -0.417,1.943 -1.251,2.597 v 0 c -0.832,0.653 -2.098,0.979 -3.796,0.979 v 0 c -1.796,0 -3.878,-0.417 -6.246,-1.251 m -15.173,-44.503 0.678,3.46 c 6.325,6.837 11.02,10.257 14.085,10.257 v 0 c 0.944,0 1.751,-0.377 2.42,-1.128 v 0 c 0.669,-0.752 1.002,-1.747 1.002,-2.988 v 0 c 0,-1.732 -0.576,-3.331 -1.729,-4.801 v 0 c -1.155,-1.469 -3.088,-2.646 -5.803,-3.527 v 0 c -2.615,-0.85 -6.009,-1.275 -10.178,-1.275 v 0 c -0.157,0 -0.316,0 -0.475,0.002"
               style="fill:url(#linearGradient96);stroke:none"
               id="path98" /></g></g></g></g><g
       id="g100"><g
         id="g102"><g
           id="g108"><g
             id="g110"><path
               d="m 459.181,277.133 c -5.977,-3.102 -10.639,-7.273 -13.987,-12.516 v 0 c -3.348,-5.241 -5.021,-10.672 -5.021,-16.288 v 0 c 0,-3.364 1.116,-6.647 3.346,-9.847 v 0 c 1.64,-2.287 3.328,-3.429 5.067,-3.429 v 0 c 0.787,0 1.484,0.301 2.091,0.906 v 0 c 0.606,0.604 0.911,1.298 0.911,2.082 v 0 c 0,0.62 -0.156,1.143 -0.466,1.568 v 0 c -0.31,0.425 -0.988,0.93 -2.033,1.518 v 0 c -3.658,1.96 -5.486,5.029 -5.486,9.21 v 0 c 0,4.278 1.492,8.679 4.478,13.203 v 0 c 2.985,4.522 7.04,8.157 12.163,10.9 v 0 c 5.123,2.743 10.571,4.115 16.347,4.115 v 0 c 6.853,0 12.401,-2.214 16.642,-6.638 v 0 c 4.242,-4.426 6.363,-10.281 6.363,-17.563 v 0 c 0,-5.553 -1.248,-10.63 -3.744,-15.235 v 0 c -2.495,-4.605 -5.864,-8.107 -10.106,-10.509 v 0 c -4.242,-2.4 -9.217,-3.6 -14.926,-3.6 v 0 c -2.154,0 -4.633,0.277 -7.439,0.832 v 0 c 2.905,5.03 5.517,12.477 7.835,22.34 v 0 l 3.232,13.668 c 1.076,4.605 2.317,8.722 3.721,12.347 v 0 c -4.832,-1.145 -9.028,-1.864 -12.586,-2.158 v 0 l -0.488,-2.107 c 0.685,0.099 1.142,0.147 1.37,0.147 v 0 c 0.586,0 1.044,-0.156 1.37,-0.465 v 0 c 0.326,-0.311 0.49,-0.727 0.49,-1.248 v 0 c 0,-0.557 -0.098,-1.225 -0.294,-2.009 v 0 l -3.915,-15.972 -3.377,-12.784 c -1.632,-5.031 -2.921,-8.296 -3.867,-9.798 v 0 c -0.522,-0.85 -1.151,-1.455 -1.884,-1.813 v 0 c -0.735,-0.36 -2.603,-0.621 -5.605,-0.784 v 0 l -1.126,-2.4 c 3.001,0.097 5.237,0.146 6.706,0.146 v 0 c 3.164,0 6.509,-0.131 10.034,-0.392 v 0 c 4.177,-0.326 7.114,-0.489 8.811,-0.489 v 0 c 5.254,0 10.515,1.2 15.785,3.601 v 0 c 5.27,2.401 9.766,6.433 13.486,12.1 v 0 c 3.72,5.665 5.58,11.879 5.58,18.64 v 0 c 0,7.283 -2.67,13.332 -8.01,18.149 v 0 c -5.339,4.818 -12.516,7.227 -21.529,7.227 v 0 c -7.318,0 -13.963,-1.551 -19.939,-4.655"
               style="fill:url(#linearGradient116);stroke:none"
               id="path118" /></g></g></g></g><g
       id="g120"><g
         id="g122"><g
           id="g128"><g
             id="g130"><path
               d="m 517.918,252.297 c -4.246,-6.925 -6.369,-13.881 -6.369,-20.869 v 0 c 0,-3.463 0.613,-5.977 1.838,-7.544 v 0 c 1.224,-1.569 2.996,-2.352 5.314,-2.352 v 0 c 5.715,0 12.574,3.804 20.576,11.414 v 0 l -1.617,2.156 c -4.148,-3.103 -7.299,-5.161 -9.454,-6.173 v 0 c -1.601,-0.751 -3.071,-1.126 -4.409,-1.126 v 0 c -1.405,0 -2.475,0.457 -3.209,1.371 v 0 c -0.735,0.914 -1.102,2.531 -1.102,4.85 v 0 c 0,1.6 0.147,3.283 0.439,5.047 v 0 c 6.206,2.807 10.257,4.751 12.151,5.828 v 0 c 3.788,2.221 6.416,4.36 7.887,6.419 v 0 c 1.469,2.056 2.205,4.146 2.205,6.27 v 0 c 0,2.024 -0.614,3.616 -1.838,4.776 v 0 c -1.225,1.159 -2.996,1.738 -5.314,1.738 v 0 c -6.631,0 -12.33,-3.935 -17.098,-11.805 m 5.781,0.882 c 1.045,2.449 2.334,4.278 3.869,5.486 v 0 c 1.143,0.914 2.319,1.372 3.527,1.372 v 0 c 1.177,0 2.132,-0.417 2.866,-1.249 v 0 c 0.736,-0.833 1.103,-1.952 1.103,-3.356 v 0 c 0,-1.862 -0.898,-3.74 -2.695,-5.634 v 0 c -2.644,-2.711 -6.597,-5.241 -11.855,-7.593 v 0 c 0.621,3.724 1.681,7.381 3.185,10.974"
               style="fill:url(#linearGradient136);stroke:none"
               id="path138" /></g></g></g></g><g
       id="g140"><g
         id="g142"><g
           id="g148"><g
             id="g150"><path
               d="m 602.473,280.514 c -2.516,-0.262 -4.819,-0.392 -6.909,-0.392 v 0 h -18.811 c -8.394,0 -15.155,-2.743 -20.281,-8.229 v 0 c -5.128,-5.521 -7.691,-11.562 -7.691,-18.126 v 0 c 0,-3.365 0.555,-5.961 1.665,-7.79 v 0 c 0.817,-1.371 1.879,-2.057 3.184,-2.057 v 0 c 0.883,0 1.601,0.252 2.156,0.758 v 0 c 0.554,0.506 0.833,1.103 0.833,1.789 v 0 c 0,0.687 -0.474,1.893 -1.421,3.625 v 0 c -0.752,1.404 -1.208,2.482 -1.371,3.233 v 0 c -0.327,1.339 -0.49,2.646 -0.49,3.919 v 0 c 0,3.168 0.971,6.296 2.915,9.382 v 0 c 1.942,3.086 4.556,5.543 7.837,7.373 v 0 c 3.283,1.828 7.112,2.808 11.488,2.938 v 0 l -7.495,-29.343 c -2.777,-10.354 -4.671,-16.525 -5.683,-18.518 v 0 c -0.489,-0.979 -1.2,-1.812 -2.13,-2.498 v 0 c -0.931,-0.686 -2.85,-1.34 -5.756,-1.96 v 0 l -0.588,-2.694 c 3.592,0.588 6.972,0.882 10.14,0.882 v 0 c 1.568,0 3.479,-0.081 5.732,-0.246 v 0 c 3.788,-0.227 6.042,-0.342 6.761,-0.342 v 0 c 0.815,0 1.696,0.049 2.645,0.147 v 0 l 0.832,2.793 c -1.303,-0.197 -2.624,-0.295 -3.959,-0.295 v 0 c -2.053,0 -4.383,0.213 -6.991,0.637 v 0 c 1.108,2.873 2.429,6.939 3.963,12.198 v 0 c 1.533,5.258 2.773,10.157 3.719,14.696 v 0 h 9.347 c 2.022,-0.065 3.263,-0.212 3.72,-0.44 v 0 c 0.783,-0.392 1.174,-0.98 1.174,-1.764 v 0 c 0,-0.327 -0.114,-1.42 -0.342,-3.282 v 0 h 2.694 c 0.752,4.474 1.633,8.768 2.646,12.884 v 0 h -2.646 c -0.457,-1.861 -1.028,-3.021 -1.712,-3.478 v 0 c -0.686,-0.458 -2.186,-0.686 -4.502,-0.686 v 0 h -9.542 c 0.915,4.049 2.255,9.242 4.022,15.578 v 0 c 0.849,3.069 1.373,4.981 1.57,5.731 v 0 h 9.784 l 1.028,-0.048 3.13,0.048 c 2.087,0 3.508,-0.261 4.257,-0.783 v 0 c 0.751,-0.523 1.126,-1.323 1.126,-2.4 v 0 c 0,-0.784 -0.278,-2.548 -0.832,-5.291 v 0 h 2.645 c 0.326,1.893 1.322,6.254 2.989,13.08 v 0 c -2.483,-0.622 -4.1,-0.964 -4.85,-1.029"
               style="fill:url(#linearGradient156);stroke:none"
               id="path158" /></g></g></g></g><g
       id="g160"><g
         id="g162"><g
           id="g168"><g
             id="g170"><path
               d="m 621.676,283.527 c -0.948,-1.029 -1.421,-2.278 -1.421,-3.748 v 0 c 0,-1.11 0.326,-2.008 0.98,-2.694 v 0 c 0.652,-0.686 1.469,-1.028 2.45,-1.028 v 0 c 1.24,0 2.358,0.545 3.355,1.641 v 0 c 0.996,1.093 1.494,2.359 1.494,3.796 v 0 c 0,1.045 -0.327,1.902 -0.979,2.571 v 0 c -0.655,0.67 -1.487,1.005 -2.5,1.005 v 0 c -1.306,0 -2.432,-0.514 -3.379,-1.543 m -9.098,-21.555 c -2.691,-1.519 -5.668,-4.074 -8.93,-7.666 v 0 l 2.155,-1.666 c 2.873,2.808 4.728,4.473 5.561,4.997 v 0 c 0.832,0.521 1.576,0.783 2.229,0.783 v 0 c 0.588,0 0.882,-0.326 0.882,-0.98 v 0 c 0,-0.587 -0.115,-1.258 -0.343,-2.008 v 0 c -4.9,-15.873 -7.348,-25.85 -7.348,-29.932 v 0 c 0,-1.273 0.334,-2.27 1.003,-2.988 v 0 c 0.67,-0.718 1.576,-1.079 2.72,-1.079 v 0 c 1.306,0 2.988,0.589 5.045,1.764 v 0 c 2.058,1.176 5.323,3.87 9.798,8.083 v 0 l -1.911,1.862 c -4.311,-4.051 -6.988,-6.075 -8.033,-6.075 v 0 c -0.262,0 -0.508,0.156 -0.735,0.466 v 0 c -0.229,0.31 -0.344,0.694 -0.344,1.152 v 0 c 0,2.384 1.727,9.372 5.179,20.966 v 0 c 2.117,7.087 3.175,11.104 3.175,12.051 v 0 c 0,0.784 -0.278,1.404 -0.831,1.862 v 0 c -0.555,0.457 -1.354,0.686 -2.398,0.686 v 0 c -1.893,0 -4.183,-0.76 -6.874,-2.278"
               style="fill:url(#linearGradient176);stroke:none"
               id="path178" /></g></g></g></g><g
       id="g180"><g
         id="g182"><g
           id="g188"><g
             id="g190"><path
               d="m 650.966,288.463 c -3.701,-2.212 -6.563,-5.318 -8.586,-9.321 v 0 c -1.305,-2.645 -2.919,-7.855 -4.843,-15.627 v 0 l -5.284,-21.506 c -2.023,-8.23 -3.033,-13.652 -3.033,-16.264 v 0 c 0,-1.34 0.325,-2.393 0.979,-3.16 v 0 c 0.653,-0.767 1.486,-1.152 2.498,-1.152 v 0 c 2.254,0 5.12,1.186 8.598,3.553 v 0 c 3.478,2.368 6.491,4.987 9.038,7.863 v 0 l -1.665,1.763 c -2.713,-2.645 -5.425,-4.818 -8.138,-6.515 v 0 c -1.372,-0.85 -2.417,-1.275 -3.136,-1.275 v 0 c -0.751,0 -1.126,0.522 -1.126,1.568 v 0 c 0,0.458 1.207,5.83 3.625,16.117 v 0 l 4.888,20.527 c 1.724,7.378 2.968,12.318 3.733,14.822 v 0 c 0.764,2.503 1.619,4.143 2.563,4.925 v 0 c 0.684,0.552 1.692,0.829 3.027,0.829 v 0 c 1.334,0 2.782,-0.133 4.344,-0.393 v 0 c 1.789,-0.326 3.173,-0.489 4.15,-0.489 v 0 c 1.496,0 2.634,0.335 3.415,1.01 v 0 c 0.781,0.674 1.172,1.537 1.172,2.59 v 0 c 0,0.955 -0.399,1.768 -1.198,2.442 v 0 c -0.8,0.674 -1.9,1.011 -3.303,1.011 v 0 c -4.11,0 -8.016,-1.105 -11.718,-3.318"
               style="fill:url(#linearGradient196);stroke:none"
               id="path198" /></g></g></g></g><g
       id="g200"><g
         id="g202"><g
           id="g208"><g
             id="g210"><path
               d="m 658.27,252.297 c -4.245,-6.925 -6.369,-13.881 -6.369,-20.869 v 0 c 0,-3.463 0.612,-5.977 1.837,-7.544 v 0 c 1.225,-1.569 2.996,-2.352 5.316,-2.352 v 0 c 5.715,0 12.573,3.804 20.575,11.414 v 0 l -1.617,2.156 c -4.148,-3.103 -7.299,-5.161 -9.454,-6.173 v 0 c -1.601,-0.751 -3.071,-1.126 -4.409,-1.126 v 0 c -1.405,0 -2.474,0.457 -3.21,1.371 v 0 c -0.734,0.914 -1.101,2.531 -1.101,4.85 v 0 c 0,1.6 0.146,3.283 0.441,5.047 v 0 c 6.204,2.807 10.254,4.751 12.149,5.828 v 0 c 3.788,2.221 6.417,4.36 7.887,6.419 v 0 c 1.469,2.056 2.204,4.146 2.204,6.27 v 0 c 0,2.024 -0.612,3.616 -1.836,4.776 v 0 c -1.226,1.159 -2.997,1.738 -5.316,1.738 v 0 c -6.631,0 -12.329,-3.935 -17.097,-11.805 m 5.781,0.882 c 1.044,2.449 2.333,4.278 3.87,5.486 v 0 c 1.143,0.914 2.318,1.372 3.528,1.372 v 0 c 1.175,0 2.13,-0.417 2.864,-1.249 v 0 c 0.736,-0.833 1.103,-1.952 1.103,-3.356 v 0 c 0,-1.862 -0.898,-3.74 -2.694,-5.634 v 0 c -2.646,-2.711 -6.598,-5.241 -11.856,-7.593 v 0 c 0.621,3.724 1.682,7.381 3.185,10.974"
               style="fill:url(#linearGradient216);stroke:none"
               id="path218" /></g></g></g></g><g
       id="g220"><g
         id="g222"><g
           id="g228"><g
             id="g230"><path
               d="M 700.155,271.549 697.41,260.82 h -7.944 l -0.882,-3.478 h 7.936 l -4.987,-19.497 c -1.242,-4.833 -1.862,-8.426 -1.862,-10.778 v 0 c 0,-1.991 0.351,-3.429 1.054,-4.31 v 0 c 0.702,-0.882 1.657,-1.324 2.865,-1.324 v 0 c 1.469,0 3.413,0.606 5.83,1.813 v 0 c 2.417,1.208 7.201,4.508 14.354,9.896 v 0 l -1.862,2.254 c -2.482,-2.026 -5.094,-3.839 -7.838,-5.438 v 0 c -2.09,-1.209 -3.643,-1.813 -4.654,-1.813 v 0 c -0.654,0 -1.169,0.197 -1.543,0.588 v 0 c -0.376,0.392 -0.563,1.029 -0.563,1.911 v 0 c 0,1.925 0.677,5.353 2.034,10.281 v 0 l 4.273,16.417 h 10.153 l 0.784,3.478 h -10.145 l 3.52,13.713 z"
               style="fill:url(#linearGradient236);stroke:none"
               id="path238" /></g></g></g></g><g
       id="g240"><g
         id="g242"><g
           id="g248"><g
             id="g250"><path
               d="m 492.8,805.568 c -6.599,-0.516 -13.22,-0.846 -19.793,-1.586 v 0 c -13.991,-1.576 -27.745,-4.396 -41.221,-8.506 v 0 C 394.399,784.071 361.75,764.669 333.952,737.2 v 0 c -26.84,-26.521 -46.256,-57.71 -58.242,-93.503 v 0 c -4.779,-14.272 -8.181,-28.866 -10.013,-43.807 v 0 c -0.738,-6.025 -1.254,-12.077 -1.863,-18.117 v 0 c -0.174,-1.72 -0.317,-3.444 -0.474,-5.166 v 0 -15.36 c 0.35,-4.034 0.678,-8.07 1.055,-12.101 v 0 c 0.959,-10.27 2.398,-20.464 4.591,-30.554 v 0 c 2.483,-11.413 5.749,-22.588 9.914,-33.494 v 0 c 1.882,-4.93 3.871,-9.83 6.047,-14.636 v 0 c 5.728,-12.653 12.607,-24.668 20.515,-36.086 v 0 c 11.317,-16.339 24.591,-30.92 39.503,-44.044 v 0 c 8.008,-7.048 16.441,-13.546 25.378,-19.333 v 0 c 20.57,-13.319 42.59,-23.52 66.257,-30.052 v 0 c 8.859,-2.445 17.822,-4.407 26.909,-5.803 v 0 c 16.163,-2.482 32.399,-3.349 48.744,-2.52 v 0 c 30.274,1.533 59.179,8.579 86.726,21.211 v 0 c 65.637,30.1 114.377,89.242 131.284,159.322 v 0 c 2.834,11.746 4.721,23.655 5.763,35.693 v 0 c 0.207,2.387 0.149,4.795 0.257,7.192 v 0 c 0.028,0.619 0.22,1.23 0.337,1.846 v 0 22.079 c -0.126,0.772 -0.328,1.54 -0.366,2.317 v 0 c -2.294,46.631 -17.507,88.767 -45.078,126.254 v 0 c -33.824,45.991 -78.708,75.95 -134.045,90.106 v 0 c -12.242,3.132 -24.699,5.127 -37.315,6.048 v 0 c -4.052,0.295 -8.104,0.583 -12.156,0.876 v 0 z m -85.852,-69.59 c 29.259,17.188 61.036,25.543 94.924,25.298 v 0 c 38.819,-0.281 74.338,-11.479 106.158,-33.807 v 0 c 31.71,-22.25 54.128,-51.822 68.17,-88.052 v 0 c 0.778,0.611 1.429,1.122 2.485,1.951 v 0 c -0.302,-1.438 -0.446,-2.419 -0.715,-3.365 v 0 c -3.151,-11.086 -8.531,-21 -15.745,-29.953 v 0 c -11.796,-14.64 -27.024,-24.116 -44.879,-29.448 v 0 c -6.867,-2.051 -14.029,-2.181 -21.168,-1.748 v 0 c -5.207,0.315 -10.331,1.122 -15.196,3.094 v 0 c -3.746,1.52 -7.457,3.081 -10.222,6.283 v 0 c -3.185,3.689 -5.451,7.696 -6.39,12.598 v 0 c -0.41,2.143 -0.329,4.217 -0.458,6.31 v 0 c -0.126,2.06 0.137,4.146 0.251,6.218 v 0 c 0.095,1.736 0.221,3.47 0.341,5.329 v 0 c 3.7,-0.479 7.302,-0.992 10.916,-1.403 v 0 c 9.949,-1.13 19.923,-1.521 29.931,-0.991 v 0 c 10.322,0.547 20.514,1.916 30.521,4.544 v 0 c 12.314,3.234 23.84,8.192 34.225,15.644 v 0 c 0.518,0.373 1.026,0.762 1.525,1.16 v 0 c 0.118,0.094 0.184,0.252 0.274,0.382 v 0 c -19.716,58.337 -78.142,114.79 -159.103,119.973 v 0 C 425.678,761.571 354.058,706.518 329.117,634.501 v 0 c 5.699,-4.221 11.777,-7.557 18.174,-10.309 v 0 c 10.41,-4.477 21.299,-7.188 32.505,-8.763 v 0 c 10.815,-1.52 21.68,-1.856 32.549,-1.244 v 0 c 6.609,0.372 13.181,1.393 19.771,2.118 v 0 c 0.617,0.067 1.236,0.105 1.963,0.166 v 0 c 1.338,-6.604 1.711,-13.091 -0.023,-19.551 v 0 c -2.112,-7.865 -7.154,-13.217 -14.517,-16.495 v 0 c -5.258,-2.343 -10.836,-3.301 -16.52,-3.681 v 0 c -6.087,-0.406 -12.18,-0.13 -18.158,1.029 v 0 c -5.822,1.129 -11.298,3.424 -16.644,5.964 v 0 c -21.597,10.264 -36.706,26.519 -45.022,48.985 v 0 c -0.962,2.597 -1.639,5.3 -2.062,8.174 v 0 c 1.204,-0.98 2.406,-1.959 3.764,-3.064 v 0 c 16.005,42.365 43.117,75.275 82.051,98.148 M 657.341,591.586 c 1.568,1.585 3.151,3.156 4.7,4.759 v 0 c 8.401,8.697 15.34,18.357 19.583,29.789 v 0 c 2.508,6.759 3.631,13.725 3.156,20.934 v 0 c -0.169,2.568 -0.534,5.083 -1.856,7.358 v 0 c -1.922,3.312 -3.734,6.695 -5.804,9.913 v 0 c -1.956,3.039 -4.353,5.782 -7.434,7.731 v 0 c -2.618,1.658 -4.743,3.74 -6.139,6.446 v 0 c -1.52,2.944 -2.847,5.995 -4.124,9.055 v 0 c -1.495,3.582 -1.529,7.403 -1.455,11.201 v 0 c 0.121,6.121 1.25,12.017 4.331,17.401 v 0 c 0.876,1.529 1.923,2.96 3.327,4.293 v 0 c 0,-0.915 0.003,-1.831 -10e-4,-2.747 v 0 c -0.036,-8.038 1.472,-15.729 5.217,-22.896 v 0 c 4.52,-8.65 11.365,-14.914 20.43,-18.321 v 0 c 8.156,-3.066 12.716,-9.096 15.585,-16.781 v 0 c 3.271,-8.759 2.304,-17.447 -1.06,-25.964 v 0 c -2.186,-5.535 -5.226,-10.606 -8.922,-15.256 v 0 c -1.081,-1.36 -2.49,-2.475 -3.826,-3.611 v 0 c -2.679,-2.279 -5.412,-4.495 -8.285,-6.871 v 0 c 0.388,-2.635 0.82,-5.384 1.193,-8.141 v 0 c 1.617,-11.918 2.117,-23.876 1.432,-35.893 v 0 c -0.72,-12.646 -2.513,-25.125 -5.905,-37.328 v 0 C 666.721,473.535 634.82,434.137 586.237,408.222 v 0 c -10.88,-5.802 -22.373,-10.157 -34.224,-13.568 v 0 c -1.029,-0.297 -2.064,-0.855 -2.884,-1.545 v 0 c -7.639,-6.42 -16.131,-7.024 -25.214,-3.841 v 0 c -0.226,0.079 -0.464,0.154 -0.656,0.289 v 0 c -5.18,3.658 -11.173,4.718 -17.272,4.954 v 0 c -6.776,0.264 -13.592,0.527 -20.324,-0.784 v 0 c -3.555,-0.692 -6.941,-1.782 -10.009,-3.792 v 0 c -2.403,-1.574 -5.216,-2.027 -7.983,-2.334 v 0 c -7.495,-0.831 -14.099,1.172 -19.46,6.639 v 0 c -0.876,0.892 -1.857,1.429 -3.016,1.808 v 0 c -51.171,16.695 -88.633,49.245 -112.82,97.286 v 0 c -2.554,5.074 -4.665,10.308 -6.921,15.488 v 0 c -1.442,3.312 -2.379,6.86 -3.367,10.352 v 0 c -3.237,11.434 -5.679,23.028 -6.975,34.861 v 0 c -1.116,10.203 -1.442,20.43 -0.793,30.654 v 0 c 0.424,6.689 1.407,13.343 2.142,20.013 v 0 c 0.078,0.711 0.172,1.421 0.266,2.199 v 0 c -3.136,2.624 -6.307,5.173 -9.349,7.866 v 0 c -1.422,1.259 -2.737,2.693 -3.858,4.226 v 0 c -4.469,6.114 -8.022,12.703 -9.68,20.162 v 0 c -2.314,10.418 -0.421,19.974 6.044,28.561 v 0 c 2.373,3.151 5.353,5.425 9.05,6.837 v 0 c 6.526,2.49 12.242,6.202 16.84,11.522 v 0 c 5.268,6.095 8.355,13.219 9.527,21.12 v 0 c 0.595,4.011 0.655,8.102 0.957,12.159 v 0 c 0.174,-0.189 0.565,-0.51 0.824,-0.916 v 0 c 4.78,-7.493 7.298,-15.593 6.476,-24.558 v 0 c -0.692,-7.535 -3.57,-14.201 -8.223,-20.113 v 0 c -0.731,-0.928 -1.658,-1.76 -2.639,-2.421 v 0 c -3.239,-2.18 -5.949,-4.908 -8.011,-8.168 v 0 c -2.342,-3.704 -4.58,-7.503 -6.486,-11.443 v 0 c -1.709,-3.533 -1.473,-7.484 -1.3,-11.318 v 0 c 0.483,-10.672 4.352,-20.214 9.949,-29.142 v 0 c 4.658,-7.431 10.323,-14.028 16.731,-19.999 v 0 c 0.617,-0.575 1.202,-1.182 1.8,-1.776 v 0 c -2.057,0.861 -4.242,1.523 -6.147,2.655 v 0 c -5.353,3.179 -10.581,6.566 -15.857,9.874 v 0 c -0.647,0.405 -1.283,0.827 -2.143,1.382 v 0 c -2.247,-13.167 -2.776,-26.147 -2.07,-39.159 v 0 c 1.067,-19.694 5.247,-38.741 12.565,-57.074 v 0 c 7.407,-18.564 17.587,-35.471 30.565,-50.673 v 0 c 11.988,-14.042 25.739,-26.074 41.345,-35.962 v 0 c 12.381,-7.845 25.486,-14.171 39.439,-18.699 v 0 c 0.334,-0.108 0.746,0.023 1.117,0.043 v 0 c -1.082,5.212 -1.093,10.343 -0.893,15.531 v 0 c 0.225,5.822 2.749,10.695 5.618,15.477 v 0 c 0.344,0.573 0.576,1.848 1.899,1.37 v 0 c 0.226,-2.433 0.365,-4.895 0.7,-7.329 v 0 c 0.778,-5.659 2.045,-11.217 5.3,-16.016 v 0 c 2.546,-3.756 5.923,-6.251 10.842,-6.295 v 0 c 3.308,-0.029 5.582,1.466 7.516,3.807 v 0 c 1.654,2 1.784,4.033 0.492,6.455 v 0 c -1.488,2.789 -3.321,5.124 -5.895,6.939 v 0 c -3.669,2.584 -6.637,5.885 -9.265,9.484 v 0 c -1.819,2.489 -2.311,5.372 -2.306,8.428 v 0 c 0.005,3.134 1.346,5.374 3.851,7.122 v 0 c 1.039,0.725 1.915,1.69 2.846,2.566 v 0 c 4.182,3.935 8.806,7.135 14.399,8.756 v 0 c 6.428,1.863 12.322,0.759 17.719,-3.151 v 0 c 0.705,-0.51 1.393,-1.043 2.136,-1.599 v 0 c 0.572,0.442 1.066,0.83 1.566,1.21 v 0 c 6.075,4.622 12.718,5.627 19.91,3.124 v 0 c 3.743,-1.302 7.096,-3.308 10.127,-5.825 v 0 c 2.151,-1.784 4.244,-3.653 6.235,-5.613 v 0 c 3.22,-3.171 4.193,-6.981 2.39,-11.181 v 0 c -0.903,-2.1 -2.147,-4.105 -3.515,-5.944 v 0 c -2.307,-3.098 -5.246,-5.602 -8.379,-7.842 v 0 c -2.078,-1.487 -3.596,-3.414 -4.726,-5.64 v 0 c -2.523,-4.971 0.451,-10.307 6.024,-10.923 v 0 c 5.162,-0.57 9.228,1.331 12.267,5.48 v 0 c 2.648,3.615 4.137,7.751 4.976,12.088 v 0 c 0.773,3.99 1.236,8.041 1.871,12.304 v 0 c 3.892,-4.772 6.205,-10.225 7.089,-16.27 v 0 c 0.875,-5.989 0.308,-11.92 -1.468,-17.809 v 0 c 75.312,20.152 143.215,102.763 126.767,204.01 v 0 c -0.739,-0.499 -1.363,-0.902 -1.967,-1.332 v 0 c -5.732,-4.087 -11.6,-7.951 -17.998,-10.94 v 0 c -0.866,-0.405 -1.762,-0.745 -2.645,-1.114 v 0 c -0.26,-0.006 -0.519,-0.013 -0.78,-0.019 v 0 z m -100.544,30.173 c -0.766,-3.049 -1.539,-5.901 -2.195,-8.779 v 0 c -1.198,-5.265 -1.323,-10.597 -0.677,-15.937 v 0 c 1.068,-8.826 5.209,-16.041 11.952,-21.715 v 0 c 2.236,-1.882 4.866,-3.299 7.333,-4.904 v 0 c 0.658,-0.428 1.376,-0.765 2.139,-1.182 v 0 c -0.554,-3.243 -1.711,-6.2 -3.111,-9.062 v 0 c -4.183,-8.553 -10.461,-15.253 -18.387,-20.422 v 0 c -2.403,-1.567 -4.932,-2.976 -7.521,-4.207 v 0 c -1.861,-0.884 -3.405,-2.041 -4.728,-3.57 v 0 c -7.728,-8.936 -10.59,-19.312 -9.158,-30.955 v 0 c 0.86,-6.991 3.153,-13.546 6.561,-19.65 v 0 c 2.333,-4.177 3.789,-8.599 4.909,-13.181 v 0 c 1.695,-6.937 2.684,-13.964 2.507,-21.125 v 0 c -0.024,-0.948 -0.15,-1.894 -0.268,-3.32 v 0 c -0.691,0.857 -1.117,1.364 -1.52,1.889 v 0 c -8.009,10.41 -18.086,17.776 -31.034,20.743 v 0 c -3.17,0.726 -6.471,1.115 -9.724,1.198 v 0 c -4.704,0.119 -9.447,0.096 -14.125,-0.361 v 0 c -10.086,-0.985 -18.831,-5.258 -26.573,-11.685 v 0 c -3.996,-3.317 -7.521,-7.081 -10.707,-11.689 v 0 c -0.17,0.82 -0.366,1.297 -0.351,1.767 v 0 c 0.118,3.913 0.317,7.823 0.41,11.737 v 0 c 0.124,5.226 1.57,10.196 2.864,15.195 v 0 c 1.223,4.726 3.975,8.78 5.894,13.203 v 0 c 1.637,3.775 2.944,7.637 3.738,11.697 v 0 c 0.63,3.227 1.461,6.389 1.35,9.728 v 0 c -0.314,9.465 -3.434,17.8 -9.758,24.899 v 0 c -1.24,1.392 -2.683,2.433 -4.383,3.243 v 0 c -10.281,4.9 -18.693,11.919 -24.438,21.892 v 0 c -2.082,3.614 -3.676,7.423 -4.574,11.735 v 0 c 1.465,0.834 2.798,1.548 4.09,2.332 v 0 c 11.618,7.049 17.514,17.362 17.612,30.964 v 0 c 0.046,6.383 -0.824,11.18 -3.365,18.76 v 0 c 12.86,6.061 36.456,6.735 57.556,-9.436 v 0 c 17.501,13.025 36.539,17.588 57.682,10.198 m -211.354,-32.195 0.103,-0.134 c -0.033,0.014 -0.067,0.028 -0.1,0.042 v 0 z m 293.573,-15.52 c 2.899,1.53 5.875,1.954 9.025,1.643 v 0 c 3.479,-0.344 5.803,-2.569 6.008,-6.046 v 0 c 0.282,-4.798 -0.533,-9.351 -3.572,-13.322 v 0 c -5.61,-7.328 -11.743,-14.133 -19.222,-19.619 v 0 c -4.281,-3.14 -8.837,-5.803 -14.102,-6.848 v 0 c -7.698,-1.529 -14.644,-0.16 -20.032,6.025 v 0 c -2.8,3.214 -4.295,7.097 -4.94,11.259 v 0 c -0.438,2.831 -0.536,5.713 -0.827,8.569 v 0 c -0.4,3.925 -1.644,7.457 -5.216,10.207 v 0 c 4.432,-0.434 8.47,-1.061 12.523,-1.184 v 0 c 0.874,-0.026 1.743,-0.039 2.612,-0.039 v 0 c 13.286,0 25.902,3.106 37.743,9.355 M 380.313,530.336 c -4.744,1.385 -8.926,3.86 -12.832,6.815 v 0 c -7.722,5.841 -14.247,12.873 -19.656,20.848 v 0 c -2.524,3.721 -3.011,8.229 -2.266,12.691 v 0 c 0.455,2.724 2.639,4.586 5.518,4.916 v 0 c 3.136,0.359 6.146,0.027 9.05,-1.514 v 0 c 12.837,-6.809 26.56,-9.932 41.074,-9.377 v 0 c 3.419,0.13 6.819,0.749 10.229,1.142 v 0 c 0.445,0.051 0.892,0.101 1.764,0.2 v 0 c -4.452,-3.422 -5.29,-7.955 -5.599,-12.778 v 0 c -0.178,-2.775 -0.462,-5.587 -1.11,-8.282 v 0 c -2.667,-11.095 -10.766,-15.68 -19.191,-15.68 v 0 c -2.338,0 -4.702,0.353 -6.981,1.019 m 197.627,20.027 c 0,0 0,0 0,0 m -0.012,-0.022 c 0,0 0,0 0,-10e-4 v 0 c 0,10e-4 0,10e-4 0,10e-4 m 0,-0.002 c 0,0 0,0 0,-0.001 v 0 c 0,0.001 0,0.001 0,0.001 m -10e-4,-0.01 c 0,-10e-4 0,-0.002 0,-0.003 v 0 c 0,10e-4 0,0.002 0,0.003 m 0,-0.007 c -10e-4,-0.017 -0.003,-0.045 -0.005,-0.087 v 0 c 0,0 0,0 0,-10e-4 v 0 c 0.002,0.039 0.004,0.069 0.005,0.088 m -19.474,-20.531 c 0.527,0.305 0.885,0.563 1.281,0.734 v 0 c 8.205,3.543 13.848,9.537 17.134,17.815 v 0 c 0.227,0.57 0.664,1.057 1.011,1.579 v 0 c -0.949,-8.18 -3.275,-15.874 -7.869,-22.776 v 0 c -1.597,-2.401 -3.474,-4.562 -6.035,-6.57 v 0 c -0.038,4.221 -1.489,7.442 -5.522,9.218 m -137.079,20.078 c 2.449,-6.18 6.003,-11.505 11.341,-15.567 v 0 c 3.003,-2.285 6.472,-3.57 9.344,-4.961 v 0 c -3.66,0.029 -6.656,-2.637 -8.075,-7.907 v 0 c -8.168,7.85 -11.279,17.727 -12.61,28.435 m 19.99,-110.657 c -1.22,3.108 -2.414,6.229 -3.719,9.302 v 0 c -1.807,4.255 -3.693,8.478 -5.575,12.701 v 0 c -0.501,1.125 -1.132,2.19 -1.669,3.3 v 0 c -2.868,5.912 -5.72,11.832 -8.588,17.743 v 0 c -0.348,0.716 -0.682,1.461 -1.16,2.089 v 0 c -5.189,6.802 -7.646,14.682 -8.923,22.974 v 0 c -1.89,12.277 -1.24,24.542 0.542,36.776 v 0 c 0.112,0.769 0.361,1.519 0.618,2.576 v 0 c 2.125,-17.225 11.636,-29.297 24.943,-39.008 v 0 c 7.187,-5.246 12.019,-12.125 12.894,-21.223 v 0 c 0.423,-4.395 -0.227,-8.646 -2.873,-12.434 v 0 c -2.12,-3.035 -2.894,-6.607 -3.556,-10.181 v 0 c -1.457,-7.883 -1.736,-15.857 -1.821,-23.845 v 0 c -0.009,-0.823 -0.042,-1.647 -0.064,-2.47 v 0 c -0.192,-0.017 -0.384,-0.035 -0.576,-0.053 v 0 c -0.155,0.586 -0.254,1.193 -0.473,1.753 m 114.765,12.22 c -0.293,5.426 -0.92,10.818 -2.373,16.077 v 0 c -0.726,2.628 -1.85,5.049 -3.331,7.371 v 0 c -2.281,3.577 -2.693,7.658 -2.198,11.772 v 0 c 1.068,8.871 5.766,15.657 12.816,20.782 v 0 c 8.134,5.912 15.025,12.86 19.861,21.742 v 0 c 1.323,2.431 2.95,3.161 5.046,2.376 v 0 c 1.398,-0.523 2.324,-1.503 2.384,-2.998 v 0 c 0.502,-12.619 -0.161,-25.079 -5.402,-36.854 v 0 c -0.615,-1.381 -1.265,-2.786 -2.145,-4.002 v 0 c -3.298,-4.56 -5.62,-9.647 -7.966,-14.704 v 0 c -4.729,-10.199 -9.325,-20.46 -13.935,-30.713 v 0 c -0.744,-1.657 -1.278,-3.409 -1.91,-5.117 v 0 c -0.115,-0.002 -0.231,-0.004 -0.348,-0.006 v 0 c -0.159,4.758 -0.242,9.521 -0.499,14.274 m -108.785,62.055 c 0.985,1.342 2.104,2.509 2.779,3.893 v 0 c 0.629,1.29 0.786,2.81 1.209,4.455 v 0 c 4.225,-6.21 5.89,-12.97 5.793,-20.266 v 0 c -1.802,5.23 -5.609,8.783 -9.781,11.918 m 99.66,7.181 c 0.794,-3.089 2.409,-5.365 5.429,-6.67 v 0 c -4.495,-3.342 -8.558,-6.854 -10.377,-12.349 v 0 c -1.014,4.583 1.283,13.491 4.948,19.019 M 503.695,386.921 c 3.612,0.365 7.198,-0.528 10.464,-2.09 v 0 c 9.649,-4.618 19.412,-4.553 29.336,-1.107 v 0 c 0.502,0.174 1.023,0.295 1.535,0.439 v 0 c -0.246,-0.743 -0.386,-1.555 -0.777,-2.219 v 0 c -3.701,-6.281 -9.193,-10.536 -15.662,-13.645 v 0 c -6.398,-3.075 -13.204,-4.763 -20.207,-5.621 v 0 c -10.583,-1.295 -21.065,-0.7 -31.33,2.313 v 0 c -7.064,2.074 -13.532,5.276 -18.737,10.653 v 0 c -2.181,2.252 -3.992,4.764 -5.468,7.886 v 0 c 0.709,-0.185 1.197,-0.271 1.655,-0.44 v 0 c 10.143,-3.709 20.133,-3.756 29.962,1.13 v 0 c 2.807,1.395 5.81,2.217 8.929,2.578 v 0 c 0.475,0.056 0.987,0.177 1.429,0.063 v 0 c 1.139,-0.293 2.268,-0.396 3.396,-0.396 v 0 c 1.818,0 3.633,0.27 5.475,0.456 m 41.692,-2.597 c -0.012,-0.063 -0.025,-0.126 -0.037,-0.189 v 0 c -0.068,0.024 -0.136,0.048 -0.204,0.072 v 0 c 0.081,0.039 0.161,0.078 0.241,0.117"
               style="fill:url(#linearGradient256);stroke:none"
               id="path258" /></g></g></g></g></g></svg>
